<svg xmlns="http://www.w3.org/2000/svg" id="Mitre_Lt" width="56.706" height="31.24" viewBox="0 0 56.706 31.24">
  <path id="Trazado_30" data-name="Trazado 30" d="M15.5,85.117l2.291-10.94h4.376l1.493,6.564L27.676,74.1h4.4L29.735,85.091H26.208l.952-4.865-3.089,4.917H21.266l-.952-5.1-1.133,5.071Z" transform="translate(-15.5 -56.115)" fill="#fff"></path>
  <path id="Trazado_31" data-name="Trazado 31" d="M79.781,85.588H76.1L78.211,74.7h3.681Z" transform="translate(-60.398 -56.562)" fill="#fff"></path>
  <path id="Trazado_32" data-name="Trazado 32" d="M112.549,74.4H101.763l-.463,2.368h3.5l-1.725,8.6h3.758l1.75-8.6h3.5Z" transform="translate(-79.051 -56.339)" fill="#fff"></path>
  <path id="Trazado_33" data-name="Trazado 33" d="M152.559,78.121a3.068,3.068,0,0,0-2.111-3.295l-8.237-.026L140.1,85.688h3.681l1.673-8.675h2.626a1.325,1.325,0,0,1,1.055,1.364c.129,1.21-1.236,1.725-1.236,1.725l-2.806-.026,3.5,7.8,3.861-.026-2.188-6.023A3.756,3.756,0,0,0,152.559,78.121Z" transform="translate(-107.783 -56.636)" fill="#fff"></path>
  <path id="Trazado_34" data-name="Trazado 34" d="M199.6,76.991l.515-2.291h-9.807L188.2,85.588h9.988l.541-2.368h-6.744l.438-2.291h5.534l.412-2.265h-4.2l-1.544,1.313-.077.36.644-3.346Z" transform="translate(-143.412 -56.562)" fill="#fff"></path>
  <path id="Trazado_35" data-name="Trazado 35" d="M50.2,21.692S58,12.657,76.25,5.115c0,0,.978-.618.618.515,0,0-3.166,4.633-4.556,6.126,0,0-.36.515.257.36a51.689,51.689,0,0,1,9.293-4.659s.515-.077.515.18c0,0-1.055,5.1-1.931,5.689a.258.258,0,0,0,.36.257,43.173,43.173,0,0,1,13.231-2.806l.257.18S78.515,15.514,77.1,17.625c0,0-1.133.077-.8-.618,0,0,1.055-4.479,1.673-4.994,0,0-9.91,6.307-11.583,5.972,0,0-.8.1-.257-.7a30.481,30.481,0,0,1,2.445-5.534s-15.084,7-17.53,9.653C51.075,21.435,50.921,21.949,50.2,21.692Z" transform="translate(-40.936 -4.947)" fill="#ea0a1f"></path>
</svg>